<svg width="64" height="48" viewBox="0 0 64 48" fill="none" xmlns="http://www.w3.org/2000/svg">
<rect width="64" height="48" rx="8" fill="#0F4CA1"/>
<path fill-rule="evenodd" clip-rule="evenodd" d="M33.6364 35H38.5455V26.6214C39.4969 28.4572 41.5808 29.1372 43.3427 29.1372C47.6785 29.1372 50 25.3472 50 20.7868C50 17.0569 47.7919 13 43.7632 13C41.4694 13 39.5521 13.9771 38.5455 16.1388V13H33.6364V35ZM44.798 20.9059C44.798 23.3641 43.6508 25.051 41.7498 25.051C40.0708 25.051 38.6707 23.3641 38.6707 21.1127C38.6707 18.8038 39.9027 17.0861 41.7498 17.0861C43.707 17.0861 44.798 18.8618 44.798 20.9059Z" fill="#FFFFFE"/>
<path fill-rule="evenodd" clip-rule="evenodd" d="M30.3636 13.3495H25.74V16.0878H25.6844C24.6064 14.2237 22.8476 13 20.6644 13C16.0707 13 14 16.3792 14 20.8961C14 25.3853 16.524 28.5296 20.5799 28.5296C22.6216 28.5296 24.323 27.716 25.5415 25.9363H25.599V26.7539C25.599 29.726 24.0116 31.1532 21.0618 31.1532C18.9346 31.1532 17.6301 30.6876 16.0707 29.9007L15.8148 34.0389C17.0063 34.4743 19.02 35 21.4586 35C27.4143 35 30.3636 32.9885 30.3636 26.7539V13.3495ZM19.2749 20.8082C19.2749 18.7401 20.2676 17.021 22.1678 17.021C24.4644 17.021 25.4291 18.9134 25.4291 20.6042C25.4291 22.9364 23.9821 24.5096 22.1678 24.5096C20.6364 24.5096 19.2749 23.1677 19.2749 20.8082Z" fill="#FFFFFE"/>
</svg>
