<svg width="250" height="36" viewBox="0 0 250 36" fill="none" xmlns="http://www.w3.org/2000/svg">
<g clip-path="url(#clip0)">
<rect x="0.16777" y="0.783386" width="250" height="35" rx="17.5" fill="#F7C557"/>
<g clip-path="url(#clip1)">
<path d="M140.148 12.6672H136.287C136.159 12.6672 136.035 12.7136 135.938 12.7983C135.841 12.883 135.777 13.0002 135.757 13.129L134.195 23.2261C134.188 23.2729 134.191 23.3208 134.204 23.3664C134.217 23.412 134.239 23.4543 134.269 23.4903C134.299 23.5263 134.337 23.5552 134.379 23.575C134.421 23.5948 134.467 23.605 134.514 23.6049H136.357C136.485 23.605 136.609 23.5584 136.706 23.4736C136.803 23.3889 136.867 23.2714 136.887 23.1426L137.308 20.4192C137.328 20.2905 137.392 20.1731 137.489 20.0884C137.586 20.0036 137.71 19.957 137.838 19.9569H139.06C141.603 19.9569 143.071 18.7018 143.454 16.2145C143.627 15.1263 143.461 14.2713 142.962 13.6725C142.413 13.015 141.44 12.6672 140.148 12.6672V12.6672ZM140.593 16.355C140.382 17.7679 139.323 17.7679 138.3 17.7679H137.717L138.126 15.1292C138.138 15.052 138.177 14.9817 138.235 14.9309C138.293 14.8801 138.367 14.8522 138.444 14.8522H138.711C139.408 14.8522 140.066 14.8522 140.406 15.2576C140.608 15.4994 140.67 15.8587 140.593 16.355V16.355ZM151.688 16.3095H149.839C149.763 16.3095 149.689 16.3374 149.63 16.3881C149.572 16.4389 149.533 16.5092 149.521 16.5864L149.44 17.1138L149.31 16.9227C148.91 16.3302 148.018 16.1321 147.127 16.1321C145.084 16.1321 143.339 17.7103 142.999 19.9241C142.822 21.0284 143.074 22.0843 143.688 22.8207C144.251 23.4978 145.057 23.7799 146.016 23.7799C147.662 23.7799 148.575 22.7004 148.575 22.7004L148.493 23.2243C148.486 23.2712 148.488 23.3191 148.501 23.3648C148.513 23.4104 148.535 23.4528 148.566 23.4889C148.596 23.525 148.633 23.5541 148.675 23.574C148.718 23.5939 148.764 23.6043 148.81 23.6043H150.475C150.603 23.6044 150.727 23.5578 150.824 23.4731C150.921 23.3883 150.986 23.2709 151.006 23.142L152.005 16.6883C152.012 16.6416 152.009 16.5938 151.997 16.5482C151.984 16.5026 151.962 16.4604 151.932 16.4243C151.902 16.3883 151.865 16.3594 151.822 16.3396C151.78 16.3197 151.734 16.3095 151.688 16.3095V16.3095ZM149.111 19.9794C148.933 21.0566 148.094 21.7798 147.025 21.7798C146.488 21.7798 146.059 21.6041 145.784 21.2714C145.511 20.9409 145.407 20.4705 145.494 19.9465C145.66 18.8785 146.513 18.1318 147.565 18.1318C148.09 18.1318 148.517 18.3097 148.798 18.6453C149.08 18.9844 149.192 19.4577 149.111 19.9794V19.9794ZM161.534 16.3095H159.677C159.589 16.3096 159.503 16.3316 159.425 16.3734C159.348 16.4152 159.282 16.4757 159.232 16.5496L156.67 20.3991L155.584 16.6998C155.55 16.587 155.482 16.4881 155.39 16.4178C155.297 16.3475 155.184 16.3095 155.069 16.3095H153.243C153.192 16.3093 153.142 16.3217 153.096 16.3455C153.05 16.3693 153.011 16.4039 152.981 16.4463C152.951 16.4888 152.932 16.5379 152.924 16.5896C152.917 16.6413 152.921 16.6941 152.938 16.7436L154.984 22.8685L153.06 25.6385C153.026 25.6876 153.006 25.7454 153.002 25.8054C152.998 25.8655 153.01 25.9256 153.037 25.9791C153.064 26.0326 153.105 26.0775 153.155 26.1088C153.206 26.1401 153.264 26.1567 153.323 26.1567H155.178C155.265 26.1568 155.35 26.1355 155.427 26.0946C155.504 26.0536 155.57 25.9944 155.619 25.9218L161.799 16.8248C161.832 16.7756 161.852 16.7179 161.855 16.6581C161.859 16.5984 161.847 16.5387 161.819 16.4856C161.792 16.4325 161.751 16.388 161.701 16.357C161.651 16.3259 161.593 16.3095 161.534 16.3095V16.3095Z" fill="#253B80"/>
<path d="M167.685 12.6672H163.824C163.696 12.6673 163.573 12.7138 163.476 12.7985C163.379 12.8831 163.314 13.0003 163.294 13.129L161.733 23.226C161.726 23.2728 161.729 23.3206 161.741 23.3662C161.754 23.4118 161.776 23.454 161.806 23.4901C161.836 23.5261 161.874 23.555 161.916 23.5748C161.958 23.5946 162.004 23.6049 162.05 23.6049H164.032C164.121 23.6048 164.208 23.5721 164.275 23.5128C164.343 23.4535 164.388 23.3714 164.402 23.2813L164.845 20.4192C164.865 20.2905 164.929 20.1731 165.026 20.0884C165.123 20.0036 165.247 19.957 165.375 19.9569H166.596C169.14 19.9569 170.607 18.7017 170.991 16.2145C171.164 15.1263 170.998 14.2713 170.498 13.6725C169.95 13.015 168.977 12.6672 167.685 12.6672V12.6672ZM168.131 16.355C167.92 17.7679 166.862 17.7679 165.838 17.7679H165.256L165.665 15.1292C165.677 15.052 165.715 14.9816 165.773 14.9308C165.831 14.88 165.906 14.8521 165.982 14.8522H166.249C166.946 14.8522 167.604 14.8522 167.944 15.2576C168.147 15.4994 168.208 15.8587 168.131 16.355V16.355ZM179.225 16.3095H177.377C177.301 16.3093 177.227 16.3371 177.168 16.3879C177.11 16.4387 177.072 16.5092 177.06 16.5864L176.978 17.1138L176.849 16.9227C176.448 16.3302 175.556 16.1321 174.666 16.1321C172.623 16.1321 170.878 17.7103 170.538 19.9241C170.362 21.0284 170.612 22.0843 171.227 22.8207C171.791 23.4978 172.596 23.7799 173.555 23.7799C175.201 23.7799 176.114 22.7004 176.114 22.7004L176.032 23.2243C176.024 23.2713 176.027 23.3193 176.04 23.365C176.052 23.4108 176.075 23.4532 176.105 23.4893C176.135 23.5255 176.173 23.5545 176.215 23.5743C176.257 23.5942 176.303 23.6044 176.35 23.6043H178.015C178.143 23.6042 178.266 23.5576 178.363 23.4729C178.46 23.3881 178.525 23.2708 178.544 23.142L179.544 16.6883C179.551 16.6414 179.548 16.5935 179.535 16.5479C179.523 16.5023 179.5 16.4601 179.47 16.4241C179.44 16.3881 179.402 16.3592 179.36 16.3394C179.318 16.3196 179.272 16.3094 179.225 16.3095V16.3095ZM176.648 19.9794C176.471 21.0566 175.631 21.7797 174.562 21.7797C174.027 21.7797 173.596 21.6041 173.321 21.2714C173.048 20.9409 172.945 20.4705 173.031 19.9465C173.198 18.8785 174.05 18.1317 175.102 18.1317C175.627 18.1317 176.054 18.3097 176.335 18.6453C176.618 18.9844 176.73 19.4577 176.648 19.9794V19.9794ZM181.405 12.9442L179.82 23.226C179.813 23.2728 179.816 23.3206 179.828 23.3662C179.841 23.4118 179.863 23.454 179.893 23.4901C179.923 23.5261 179.961 23.555 180.003 23.5748C180.045 23.5946 180.091 23.6049 180.137 23.6049H181.73C181.995 23.6049 182.22 23.4091 182.261 23.1426L183.823 13.0461C183.83 12.9993 183.828 12.9514 183.815 12.9058C183.802 12.8602 183.78 12.8179 183.75 12.7819C183.72 12.7458 183.683 12.7169 183.64 12.697C183.598 12.6771 183.552 12.6667 183.506 12.6667H181.722C181.645 12.6669 181.571 12.695 181.513 12.7459C181.455 12.7967 181.417 12.867 181.405 12.9442Z" fill="#179BD7"/>
<path d="M118.163 25.5671L118.458 23.6544L117.8 23.6389H114.66L116.842 9.52531C116.849 9.48218 116.87 9.44288 116.903 9.41455C116.935 9.38623 116.977 9.37077 117.019 9.371H122.315C124.073 9.371 125.286 9.7441 125.919 10.4805C126.216 10.8259 126.405 11.1869 126.497 11.5842C126.593 12.0011 126.594 12.4991 126.5 13.1065L126.494 13.1509V13.5401L126.791 13.7116C127.017 13.8288 127.221 13.9872 127.392 14.1792C127.646 14.4745 127.81 14.8499 127.88 15.295C127.951 15.7527 127.928 16.2974 127.81 16.914C127.675 17.6233 127.456 18.2411 127.16 18.7466C126.899 19.1995 126.548 19.5917 126.13 19.8982C125.737 20.1826 125.27 20.3985 124.742 20.5367C124.231 20.6725 123.647 20.7411 123.008 20.7411H122.596C122.301 20.7411 122.015 20.8493 121.79 21.0433C121.566 21.2394 121.417 21.5104 121.37 21.8079L121.339 21.9801L120.818 25.3512L120.794 25.4749C120.788 25.5141 120.777 25.5337 120.761 25.5469C120.746 25.5597 120.727 25.5668 120.707 25.5671H118.163Z" fill="#253B80"/>
<path d="M127.072 13.1958C127.056 13.2988 127.038 13.4042 127.018 13.5124C126.319 17.1691 123.93 18.4323 120.879 18.4323H119.325C118.952 18.4323 118.638 18.7086 118.58 19.084L117.784 24.229L117.559 25.6874C117.55 25.7453 117.554 25.8044 117.569 25.8608C117.585 25.9171 117.612 25.9694 117.649 26.0139C117.687 26.0585 117.733 26.0942 117.785 26.1188C117.837 26.1433 117.894 26.156 117.951 26.1561H120.707C121.033 26.1561 121.31 25.9143 121.362 25.5861L121.389 25.4433L121.908 22.0855L121.941 21.9012C121.992 21.5719 122.269 21.3301 122.596 21.3301H123.008C125.677 21.3301 127.767 20.2246 128.378 17.0257C128.633 15.6894 128.501 14.5736 127.826 13.7888C127.612 13.546 127.356 13.3451 127.072 13.1958V13.1958Z" fill="#179BD7"/>
<path d="M126.341 12.8987C126.118 12.8329 125.891 12.7815 125.662 12.7449C125.209 12.6739 124.751 12.6398 124.293 12.643H120.142C119.984 12.6429 119.832 12.7004 119.712 12.8052C119.592 12.9099 119.512 13.055 119.488 13.2142L118.605 18.9176L118.58 19.084C118.607 18.9025 118.698 18.7369 118.834 18.6174C118.971 18.4978 119.145 18.4322 119.325 18.4323H120.879C123.93 18.4323 126.319 17.1685 127.018 13.5124C127.038 13.4042 127.056 13.2988 127.072 13.1958C126.888 13.0972 126.695 13.0146 126.498 12.9488C126.446 12.9312 126.394 12.9145 126.341 12.8987V12.8987Z" fill="#222D65"/>
<path d="M119.488 13.2142C119.512 13.055 119.591 12.9098 119.711 12.8051C119.832 12.7004 119.984 12.6431 120.142 12.6436H124.293C124.784 12.6436 125.243 12.6764 125.662 12.7455C125.946 12.791 126.225 12.8589 126.498 12.9488C126.704 13.0184 126.896 13.1008 127.072 13.1958C127.28 11.8445 127.071 10.9244 126.354 10.0913C125.565 9.1741 124.139 8.78143 122.315 8.78143H117.02C116.647 8.78143 116.33 9.0578 116.272 9.43377L114.066 23.6924C114.056 23.7586 114.06 23.8263 114.078 23.8908C114.096 23.9553 114.127 24.0151 114.17 24.0661C114.212 24.1171 114.265 24.1581 114.325 24.1862C114.385 24.2143 114.45 24.2289 114.515 24.229H117.784L118.605 18.9176L119.488 13.2142V13.2142Z" fill="#253B80"/>
</g>
<path d="M67.489 14.9815H70.954C71.5113 14.9815 71.966 15.0621 72.318 15.2235C72.67 15.3848 72.9413 15.5865 73.132 15.8285C73.3226 16.0705 73.451 16.3345 73.517 16.6205C73.5903 16.9065 73.627 17.1705 73.627 17.4125C73.627 17.6545 73.5903 17.9185 73.517 18.2045C73.451 18.4831 73.3226 18.7435 73.132 18.9855C72.9413 19.2275 72.67 19.4291 72.318 19.5905C71.966 19.7445 71.5113 19.8215 70.954 19.8215H68.864V22.8355H67.489V14.9815ZM68.864 18.6995H70.877C71.031 18.6995 71.1886 18.6775 71.35 18.6335C71.5113 18.5895 71.658 18.5198 71.79 18.4245C71.9293 18.3218 72.0393 18.1898 72.12 18.0285C72.208 17.8598 72.252 17.6508 72.252 17.4015C72.252 17.1448 72.2153 16.9321 72.142 16.7635C72.0686 16.5948 71.9696 16.4628 71.845 16.3675C71.7203 16.2648 71.5773 16.1951 71.416 16.1585C71.2546 16.1218 71.0823 16.1035 70.899 16.1035H68.864V18.6995ZM79.4129 21.5705C79.4129 21.7245 79.4312 21.8345 79.4679 21.9005C79.5119 21.9665 79.5925 21.9995 79.7099 21.9995C79.7465 21.9995 79.7905 21.9995 79.8419 21.9995C79.8932 21.9995 79.9519 21.9921 80.0179 21.9775V22.8465C79.9739 22.8611 79.9152 22.8758 79.8419 22.8905C79.7759 22.9125 79.7062 22.9308 79.6329 22.9455C79.5595 22.9601 79.4862 22.9711 79.4129 22.9785C79.3395 22.9858 79.2772 22.9895 79.2259 22.9895C78.9692 22.9895 78.7565 22.9381 78.5879 22.8355C78.4192 22.7328 78.3092 22.5531 78.2579 22.2965C78.0085 22.5385 77.7005 22.7145 77.3339 22.8245C76.9745 22.9345 76.6262 22.9895 76.2889 22.9895C76.0322 22.9895 75.7865 22.9528 75.5519 22.8795C75.3172 22.8135 75.1082 22.7145 74.9249 22.5825C74.7489 22.4431 74.6059 22.2708 74.4959 22.0655C74.3932 21.8528 74.3419 21.6071 74.3419 21.3285C74.3419 20.9765 74.4042 20.6905 74.5289 20.4705C74.6609 20.2505 74.8295 20.0781 75.0349 19.9535C75.2475 19.8288 75.4822 19.7408 75.7389 19.6895C76.0029 19.6308 76.2669 19.5868 76.5309 19.5575C76.7582 19.5135 76.9745 19.4841 77.1799 19.4695C77.3852 19.4475 77.5649 19.4145 77.7189 19.3705C77.8802 19.3265 78.0049 19.2605 78.0929 19.1725C78.1882 19.0771 78.2359 18.9378 78.2359 18.7545C78.2359 18.5931 78.1955 18.4611 78.1149 18.3585C78.0415 18.2558 77.9462 18.1788 77.8289 18.1275C77.7189 18.0688 77.5942 18.0321 77.4549 18.0175C77.3155 17.9955 77.1835 17.9845 77.0589 17.9845C76.7069 17.9845 76.4172 18.0578 76.1899 18.2045C75.9625 18.3511 75.8342 18.5785 75.8049 18.8865H74.5509C74.5729 18.5198 74.6609 18.2155 74.8149 17.9735C74.9689 17.7315 75.1632 17.5371 75.3979 17.3905C75.6399 17.2438 75.9112 17.1411 76.2119 17.0825C76.5125 17.0238 76.8205 16.9945 77.1359 16.9945C77.4145 16.9945 77.6895 17.0238 77.9609 17.0825C78.2322 17.1411 78.4742 17.2365 78.6869 17.3685C78.9069 17.5005 79.0829 17.6728 79.2149 17.8855C79.3469 18.0908 79.4129 18.3438 79.4129 18.6445V21.5705ZM78.1589 19.9865C77.9682 20.1111 77.7335 20.1881 77.4549 20.2175C77.1762 20.2395 76.8975 20.2761 76.6189 20.3275C76.4869 20.3495 76.3585 20.3825 76.2339 20.4265C76.1092 20.4631 75.9992 20.5181 75.9039 20.5915C75.8085 20.6575 75.7315 20.7491 75.6729 20.8665C75.6215 20.9765 75.5959 21.1121 75.5959 21.2735C75.5959 21.4128 75.6362 21.5301 75.7169 21.6255C75.7975 21.7208 75.8929 21.7978 76.0029 21.8565C76.1202 21.9078 76.2449 21.9445 76.3769 21.9665C76.5162 21.9885 76.6409 21.9995 76.7509 21.9995C76.8902 21.9995 77.0405 21.9811 77.2019 21.9445C77.3632 21.9078 77.5135 21.8455 77.6529 21.7575C77.7995 21.6695 77.9205 21.5595 78.0159 21.4275C78.1112 21.2881 78.1589 21.1195 78.1589 20.9215V19.9865ZM80.1352 17.1485H81.5102L82.9952 21.3945H83.0172L84.4582 17.1485H85.7672L83.5562 23.1435C83.4535 23.4001 83.3508 23.6458 83.2482 23.8805C83.1528 24.1151 83.0318 24.3205 82.8852 24.4965C82.7458 24.6798 82.5698 24.8228 82.3572 24.9255C82.1445 25.0355 81.8732 25.0905 81.5432 25.0905C81.2498 25.0905 80.9602 25.0685 80.6742 25.0245V23.9685C80.7768 23.9831 80.8758 23.9978 80.9712 24.0125C81.0665 24.0345 81.1655 24.0455 81.2682 24.0455C81.4148 24.0455 81.5358 24.0271 81.6312 23.9905C81.7265 23.9538 81.8035 23.8988 81.8622 23.8255C81.9282 23.7595 81.9832 23.6788 82.0272 23.5835C82.0712 23.4881 82.1115 23.3781 82.1482 23.2535L82.2912 22.8135L80.1352 17.1485ZM89.0108 17.1485H90.3418L91.4528 21.3945H91.4748L92.5418 17.1485H93.8068L94.8298 21.3945H94.8518L96.0068 17.1485H97.2828L95.5008 22.8355H94.2138L93.1578 18.6115H93.1358L92.0908 22.8355H90.7708L89.0108 17.1485ZM98.1223 14.9815H99.3763V16.1695H98.1223V14.9815ZM98.1223 17.1485H99.3763V22.8355H98.1223V17.1485ZM100.171 17.1485H101.117V15.4435H102.371V17.1485H103.504V18.0835H102.371V21.1195C102.371 21.2515 102.374 21.3651 102.382 21.4605C102.396 21.5558 102.422 21.6365 102.459 21.7025C102.503 21.7685 102.565 21.8198 102.646 21.8565C102.726 21.8858 102.836 21.9005 102.976 21.9005C103.064 21.9005 103.152 21.9005 103.24 21.9005C103.328 21.8931 103.416 21.8785 103.504 21.8565V22.8245C103.364 22.8391 103.229 22.8538 103.097 22.8685C102.965 22.8831 102.829 22.8905 102.69 22.8905C102.36 22.8905 102.092 22.8611 101.887 22.8025C101.689 22.7365 101.531 22.6448 101.414 22.5275C101.304 22.4028 101.227 22.2488 101.183 22.0655C101.146 21.8821 101.124 21.6731 101.117 21.4385V18.0835H100.171V17.1485ZM104.406 14.9815H105.66V17.8965H105.682C105.836 17.6398 106.063 17.4271 106.364 17.2585C106.672 17.0825 107.013 16.9945 107.387 16.9945C108.01 16.9945 108.501 17.1558 108.861 17.4785C109.22 17.8011 109.4 18.2851 109.4 18.9305V22.8355H108.146V19.2605C108.131 18.8131 108.036 18.4905 107.86 18.2925C107.684 18.0871 107.409 17.9845 107.035 17.9845C106.822 17.9845 106.631 18.0248 106.463 18.1055C106.294 18.1788 106.151 18.2851 106.034 18.4245C105.916 18.5565 105.825 18.7141 105.759 18.8975C105.693 19.0808 105.66 19.2751 105.66 19.4805V22.8355H104.406V14.9815Z" fill="black"/>
</g>
<defs>
<clipPath id="clip0">
<rect width="250" height="35" fill="white" transform="translate(0 0.783386)"/>
</clipPath>
<clipPath id="clip1">
<rect width="70" height="19" fill="white" transform="translate(114.061 8.78143)"/>
</clipPath>
</defs>
</svg>
