<svg width="250" height="36" viewBox="0 0 250 36" fill="none" xmlns="http://www.w3.org/2000/svg">
<g clip-path="url(#clip0)">
<rect y="0.308472" width="250" height="35" rx="17.5" fill="#F7C557"/>
<g clip-path="url(#clip1)">
<path d="M86.437 12.1943H82.5763C82.4485 12.1942 82.3248 12.2407 82.2277 12.3253C82.1305 12.41 82.0661 12.5273 82.0462 12.656L80.4848 22.7531C80.4776 22.7999 80.4804 22.8478 80.4931 22.8935C80.5059 22.9391 80.5281 22.9813 80.5584 23.0173C80.5886 23.0533 80.6262 23.0822 80.6684 23.102C80.7107 23.1218 80.7566 23.132 80.8031 23.1319H82.6463C82.7742 23.132 82.8979 23.0854 82.9951 23.0007C83.0923 22.9159 83.1566 22.7985 83.1764 22.6696L83.5975 19.9463C83.6173 19.8175 83.6815 19.7002 83.7786 19.6154C83.8756 19.5306 83.9992 19.484 84.127 19.4839H85.3492C87.8923 19.4839 89.3601 18.2288 89.7434 15.7415C89.9161 14.6533 89.7507 13.7983 89.2511 13.1995C88.7024 12.542 87.7292 12.1943 86.437 12.1943V12.1943ZM86.8824 15.882C86.6713 17.2949 85.6128 17.2949 84.5894 17.2949H84.0068L84.4155 14.6562C84.4274 14.579 84.466 14.5087 84.5243 14.4579C84.5826 14.4072 84.6567 14.3793 84.7333 14.3793H85.0003C85.6975 14.3793 86.3552 14.3793 86.695 14.7846C86.8977 15.0264 86.9598 15.3857 86.8824 15.882V15.882ZM97.9774 15.8365H96.1286C96.052 15.8365 95.9779 15.8644 95.9196 15.9152C95.8614 15.966 95.8228 16.0363 95.8108 16.1135L95.7289 16.6409L95.5997 16.4497C95.1994 15.8572 94.3069 15.6592 93.4161 15.6592C91.3731 15.6592 89.6282 17.2373 89.2884 19.4511C89.1117 20.5554 89.3629 21.6114 89.9771 22.3478C90.5405 23.0249 91.3466 23.307 92.3057 23.307C93.9518 23.307 94.8647 22.2274 94.8647 22.2274L94.7823 22.7514C94.7749 22.7982 94.7776 22.8461 94.7902 22.8918C94.8027 22.9375 94.8248 22.9798 94.855 23.016C94.8852 23.0521 94.9226 23.0811 94.9648 23.101C95.0071 23.1209 95.053 23.1313 95.0995 23.1314H96.7648C96.8927 23.1314 97.0164 23.0849 97.1136 23.0001C97.2108 22.9153 97.2751 22.7979 97.2949 22.669L98.2941 16.2154C98.3015 16.1686 98.2988 16.1208 98.2862 16.0752C98.2737 16.0297 98.2516 15.9874 98.2215 15.9514C98.1914 15.9154 98.154 15.8864 98.1118 15.8666C98.0697 15.8468 98.0238 15.8365 97.9774 15.8365V15.8365ZM95.4004 19.5064C95.222 20.5836 94.3837 21.3068 93.3145 21.3068C92.7777 21.3068 92.3486 21.1312 92.0731 20.7984C91.7999 20.4679 91.696 19.9975 91.783 19.4736C91.9495 18.4055 92.8019 17.6588 93.8548 17.6588C94.3798 17.6588 94.8065 17.8367 95.0877 18.1724C95.3694 18.5115 95.4811 18.9848 95.4004 19.5064V19.5064ZM107.824 15.8365H105.966C105.878 15.8367 105.792 15.8586 105.715 15.9004C105.637 15.9423 105.571 16.0027 105.522 16.0766L102.959 19.9261L101.873 16.2269C101.84 16.1141 101.772 16.0152 101.679 15.9449C101.586 15.8746 101.474 15.8366 101.358 15.8365H99.5327C99.4814 15.8364 99.4309 15.8487 99.3852 15.8725C99.3396 15.8963 99.3002 15.9309 99.2704 15.9734C99.2405 16.0158 99.221 16.065 99.2135 16.1167C99.206 16.1684 99.2107 16.2212 99.2273 16.2706L101.274 22.3955L99.3498 25.1655C99.3156 25.2146 99.2953 25.2724 99.2911 25.3325C99.287 25.3926 99.2991 25.4526 99.3262 25.5062C99.3534 25.5597 99.3944 25.6045 99.4448 25.6359C99.4953 25.6672 99.5532 25.6837 99.6123 25.6837H101.468C101.554 25.6838 101.64 25.6625 101.717 25.6216C101.793 25.5807 101.859 25.5214 101.909 25.4488L108.088 16.3518C108.121 16.3026 108.141 16.245 108.145 16.1852C108.148 16.1254 108.136 16.0657 108.109 16.0126C108.081 15.9595 108.041 15.9151 107.99 15.884C107.94 15.853 107.882 15.8365 107.824 15.8365V15.8365Z" fill="#253B80"/>
<path d="M113.975 12.1943H110.113C109.986 12.1943 109.862 12.2409 109.765 12.3255C109.668 12.4102 109.604 12.5274 109.584 12.656L108.022 22.7531C108.015 22.7999 108.018 22.8477 108.031 22.8933C108.043 22.9388 108.065 22.9811 108.095 23.0171C108.126 23.0531 108.163 23.082 108.205 23.1018C108.247 23.1217 108.293 23.1319 108.34 23.1319H110.321C110.411 23.1318 110.497 23.0991 110.565 23.0398C110.633 22.9805 110.678 22.8984 110.691 22.8084L111.135 19.9463C111.154 19.8175 111.219 19.7002 111.316 19.6154C111.413 19.5306 111.536 19.484 111.664 19.4839H112.886C115.429 19.4839 116.897 18.2288 117.28 15.7415C117.454 14.6533 117.287 13.7983 116.788 13.1995C116.24 12.542 115.267 12.1943 113.975 12.1943V12.1943ZM114.42 15.882C114.21 17.2949 113.151 17.2949 112.127 17.2949H111.545L111.954 14.6562C111.966 14.579 112.004 14.5086 112.063 14.4578C112.121 14.407 112.195 14.3792 112.272 14.3793H112.539C113.235 14.3793 113.893 14.3793 114.233 14.7846C114.436 15.0264 114.497 15.3857 114.42 15.882V15.882ZM125.515 15.8365H123.667C123.59 15.8363 123.516 15.8641 123.458 15.9149C123.4 15.9658 123.361 16.0362 123.35 16.1135L123.268 16.6408L123.138 16.4497C122.738 15.8572 121.846 15.6592 120.955 15.6592C118.912 15.6592 117.168 17.2373 116.828 19.4511C116.652 20.5554 116.902 21.6114 117.516 22.3478C118.08 23.0248 118.885 23.307 119.845 23.307C121.491 23.307 122.403 22.2274 122.403 22.2274L122.321 22.7514C122.314 22.7983 122.316 22.8463 122.329 22.8921C122.342 22.9378 122.364 22.9802 122.394 23.0164C122.424 23.0525 122.462 23.0815 122.504 23.1014C122.547 23.1212 122.593 23.1315 122.639 23.1314H124.304C124.432 23.1313 124.556 23.0847 124.653 22.9999C124.75 22.9151 124.814 22.7978 124.834 22.669L125.833 16.2154C125.841 16.1685 125.838 16.1206 125.825 16.075C125.812 16.0293 125.79 15.9871 125.759 15.9511C125.729 15.9151 125.692 15.8862 125.649 15.8664C125.607 15.8467 125.561 15.8365 125.515 15.8365V15.8365ZM122.938 19.5064C122.76 20.5836 121.921 21.3068 120.852 21.3068C120.316 21.3068 119.886 21.1312 119.61 20.7984C119.337 20.4679 119.234 19.9975 119.32 19.4736C119.488 18.4055 120.339 17.6588 121.392 17.6588C121.917 17.6588 122.344 17.8367 122.625 18.1724C122.908 18.5115 123.019 18.9848 122.938 19.5064V19.5064ZM127.694 12.4712L126.11 22.7531C126.102 22.7999 126.105 22.8477 126.118 22.8933C126.13 22.9388 126.152 22.9811 126.183 23.0171C126.213 23.0531 126.25 23.082 126.292 23.1018C126.334 23.1217 126.38 23.1319 126.427 23.1319H128.02C128.285 23.1319 128.509 22.9362 128.55 22.6696L130.113 12.5731C130.12 12.5263 130.117 12.4785 130.104 12.4329C130.092 12.3873 130.07 12.345 130.04 12.3089C130.009 12.2729 129.972 12.2439 129.93 12.224C129.888 12.2041 129.842 12.1938 129.795 12.1937H128.011C127.935 12.194 127.861 12.2221 127.803 12.2729C127.745 12.3238 127.706 12.3941 127.694 12.4712Z" fill="#179BD7"/>
<path d="M64.4519 25.0941L64.7472 23.1814L64.0895 23.1659H60.9491L63.1315 9.05235C63.138 9.00922 63.1595 8.96992 63.192 8.94159C63.2246 8.91327 63.266 8.89781 63.3088 8.89804H68.6039C70.3618 8.89804 71.575 9.27113 72.2084 10.0075C72.5053 10.353 72.6944 10.714 72.7859 11.1113C72.8818 11.5281 72.8835 12.0261 72.7898 12.6336L72.783 12.6779V13.0671L73.08 13.2387C73.3067 13.3558 73.5104 13.5143 73.6812 13.7062C73.9352 14.0016 74.0995 14.377 74.1689 14.822C74.2406 15.2797 74.2169 15.8244 74.0995 16.441C73.964 17.1504 73.745 17.7682 73.4492 18.2737C73.1882 18.7265 72.8373 19.1188 72.4189 19.4252C72.026 19.7096 71.5592 19.9255 71.0314 20.0637C70.5199 20.1996 69.9368 20.2681 69.2972 20.2681H68.8851C68.5904 20.2681 68.3042 20.3763 68.0795 20.5704C67.8551 20.7665 67.7063 21.0374 67.6595 21.335L67.6285 21.5071L67.1068 24.8782L67.0831 25.002C67.0769 25.0411 67.0662 25.0607 67.0504 25.074C67.0351 25.0867 67.016 25.0938 66.9962 25.0941H64.4519Z" fill="#253B80"/>
<path d="M73.3611 12.7228C73.3453 12.8259 73.3272 12.9312 73.3069 13.0395C72.6086 16.6961 70.2196 17.9593 67.1684 17.9593H65.6148C65.2417 17.9593 64.9272 18.2357 64.8691 18.6111L64.0737 23.7561L63.8484 25.2144C63.8395 25.2723 63.8429 25.3314 63.8585 25.3878C63.8741 25.4442 63.9015 25.4964 63.9387 25.541C63.976 25.5855 64.0223 25.6213 64.0745 25.6458C64.1266 25.6704 64.1834 25.6831 64.2408 25.6831H66.9962C67.3225 25.6831 67.5997 25.4413 67.651 25.1131L67.6781 24.9703L68.1969 21.6125L68.2302 21.4283C68.281 21.0989 68.5588 20.8571 68.8851 20.8571H69.2972C71.9668 20.8571 74.0566 19.7517 74.6674 16.5527C74.9226 15.2164 74.7905 14.1006 74.1153 13.3158C73.9013 13.0731 73.6457 12.8721 73.3611 12.7228V12.7228Z" fill="#179BD7"/>
<path d="M72.6306 12.4257C72.4076 12.3599 72.1808 12.3086 71.9515 12.272C71.4984 12.201 71.0404 12.1669 70.582 12.1701H66.4317C66.2737 12.1699 66.1209 12.2275 66.0009 12.3322C65.8809 12.437 65.8016 12.582 65.7774 12.7412L64.8945 18.4447L64.8691 18.6111C64.8966 18.4295 64.9869 18.264 65.1237 18.1444C65.2605 18.0249 65.4347 17.9592 65.6148 17.9593H67.1684C70.2196 17.9593 72.6086 16.6955 73.3069 13.0395C73.3278 12.9312 73.3453 12.8259 73.3611 12.7228C73.1768 12.6242 72.9848 12.5416 72.787 12.4758C72.7351 12.4582 72.683 12.4415 72.6306 12.4257V12.4257Z" fill="#222D65"/>
<path d="M65.7774 12.7412C65.8015 12.582 65.8807 12.4369 66.0008 12.3322C66.1208 12.2275 66.2737 12.1702 66.4317 12.1707H70.582C71.0737 12.1707 71.5327 12.2035 71.9515 12.2726C72.235 12.318 72.5145 12.386 72.7876 12.4758C72.9936 12.5455 73.185 12.6278 73.3617 12.7228C73.5694 11.3715 73.36 10.4514 72.6436 9.61832C71.8539 8.70114 70.4285 8.30847 68.6045 8.30847H63.3094C62.9368 8.30847 62.619 8.58484 62.5614 8.96081L60.3558 23.2194C60.3455 23.2856 60.3494 23.3533 60.3673 23.4178C60.3851 23.4823 60.4164 23.5422 60.4591 23.5931C60.5017 23.6441 60.5547 23.6851 60.6143 23.7132C60.674 23.7413 60.7389 23.756 60.8046 23.756H64.0737L64.8945 18.4447L65.7774 12.7412V12.7412Z" fill="#253B80"/>
</g>
<path d="M139.619 17.0016C139.56 16.7743 139.479 16.5653 139.377 16.3746C139.274 16.1839 139.142 16.0189 138.981 15.8796C138.819 15.7403 138.629 15.6339 138.409 15.5606C138.196 15.4799 137.947 15.4396 137.661 15.4396C137.243 15.4396 136.88 15.5239 136.572 15.6926C136.271 15.8613 136.025 16.0886 135.835 16.3746C135.644 16.6533 135.501 16.9723 135.406 17.3316C135.318 17.6909 135.274 18.0576 135.274 18.4316C135.274 18.8056 135.318 19.1723 135.406 19.5316C135.501 19.8909 135.644 20.2136 135.835 20.4996C136.025 20.7783 136.271 21.0019 136.572 21.1706C136.88 21.3393 137.243 21.4236 137.661 21.4236C137.969 21.4236 138.24 21.3723 138.475 21.2696C138.709 21.1596 138.911 21.0129 139.08 20.8296C139.248 20.6389 139.38 20.4189 139.476 20.1696C139.571 19.9203 139.633 19.6526 139.663 19.3666H141.005C140.975 19.8359 140.873 20.2649 140.697 20.6536C140.528 21.0423 140.297 21.3796 140.004 21.6656C139.71 21.9443 139.366 22.1606 138.97 22.3146C138.574 22.4686 138.137 22.5456 137.661 22.5456C137.074 22.5456 136.546 22.4393 136.077 22.2266C135.615 22.0066 135.222 21.7096 134.9 21.3356C134.577 20.9616 134.328 20.5253 134.152 20.0266C133.983 19.5279 133.899 18.9963 133.899 18.4316C133.899 17.8743 133.983 17.3463 134.152 16.8476C134.328 16.3489 134.577 15.9126 134.9 15.5386C135.222 15.1646 135.615 14.8676 136.077 14.6476C136.546 14.4276 137.074 14.3176 137.661 14.3176C138.101 14.3176 138.515 14.3799 138.904 14.5046C139.292 14.6219 139.633 14.7979 139.927 15.0326C140.227 15.2599 140.469 15.5386 140.653 15.8686C140.836 16.1986 140.95 16.5763 140.994 17.0016H139.619ZM142.079 14.5046H143.333V17.4196H143.355C143.509 17.1629 143.736 16.9503 144.037 16.7816C144.345 16.6056 144.686 16.5176 145.06 16.5176C145.683 16.5176 146.175 16.6789 146.534 17.0016C146.893 17.3243 147.073 17.8083 147.073 18.4536V22.3586H145.819V18.7836C145.804 18.3363 145.709 18.0136 145.533 17.8156C145.357 17.6103 145.082 17.5076 144.708 17.5076C144.495 17.5076 144.305 17.5479 144.136 17.6286C143.967 17.7019 143.824 17.8083 143.707 17.9476C143.59 18.0796 143.498 18.2373 143.432 18.4206C143.366 18.6039 143.333 18.7983 143.333 19.0036V22.3586H142.079V14.5046ZM152.301 19.0146C152.286 18.8166 152.242 18.6259 152.169 18.4426C152.103 18.2593 152.007 18.1016 151.883 17.9696C151.765 17.8303 151.619 17.7203 151.443 17.6396C151.274 17.5516 151.083 17.5076 150.871 17.5076C150.651 17.5076 150.449 17.5479 150.266 17.6286C150.09 17.7019 149.936 17.8083 149.804 17.9476C149.679 18.0796 149.576 18.2373 149.496 18.4206C149.422 18.6039 149.382 18.8019 149.375 19.0146H152.301ZM149.375 19.8396C149.375 20.0596 149.404 20.2723 149.463 20.4776C149.529 20.6829 149.624 20.8626 149.749 21.0166C149.873 21.1706 150.031 21.2953 150.222 21.3906C150.412 21.4786 150.64 21.5226 150.904 21.5226C151.27 21.5226 151.564 21.4456 151.784 21.2916C152.011 21.1303 152.18 20.8919 152.29 20.5766H153.478C153.412 20.8846 153.298 21.1596 153.137 21.4016C152.975 21.6436 152.781 21.8489 152.554 22.0176C152.326 22.1789 152.07 22.2999 151.784 22.3806C151.505 22.4686 151.212 22.5126 150.904 22.5126C150.456 22.5126 150.06 22.4393 149.716 22.2926C149.371 22.1459 149.078 21.9406 148.836 21.6766C148.601 21.4126 148.421 21.0973 148.297 20.7306C148.179 20.3639 148.121 19.9606 148.121 19.5206C148.121 19.1173 148.183 18.7359 148.308 18.3766C148.44 18.0099 148.623 17.6909 148.858 17.4196C149.1 17.1409 149.389 16.9209 149.727 16.7596C150.064 16.5983 150.445 16.5176 150.871 16.5176C151.318 16.5176 151.718 16.6129 152.07 16.8036C152.429 16.9869 152.726 17.2326 152.961 17.5406C153.195 17.8486 153.364 18.2043 153.467 18.6076C153.577 19.0036 153.606 19.4143 153.555 19.8396H149.375ZM158.347 18.5746C158.296 18.2226 158.153 17.9586 157.918 17.7826C157.691 17.5993 157.401 17.5076 157.049 17.5076C156.888 17.5076 156.715 17.5369 156.532 17.5956C156.349 17.6469 156.18 17.7496 156.026 17.9036C155.872 18.0503 155.744 18.2593 155.641 18.5306C155.538 18.7946 155.487 19.1429 155.487 19.5756C155.487 19.8103 155.513 20.0449 155.564 20.2796C155.623 20.5143 155.711 20.7233 155.828 20.9066C155.953 21.0899 156.11 21.2403 156.301 21.3576C156.492 21.4676 156.723 21.5226 156.994 21.5226C157.361 21.5226 157.661 21.4089 157.896 21.1816C158.138 20.9543 158.288 20.6353 158.347 20.2246H159.601C159.484 20.9653 159.201 21.5336 158.754 21.9296C158.314 22.3183 157.727 22.5126 156.994 22.5126C156.547 22.5126 156.151 22.4393 155.806 22.2926C155.469 22.1386 155.183 21.9333 154.948 21.6766C154.713 21.4126 154.534 21.1009 154.409 20.7416C154.292 20.3823 154.233 19.9936 154.233 19.5756C154.233 19.1503 154.292 18.7506 154.409 18.3766C154.526 18.0026 154.702 17.6799 154.937 17.4086C155.172 17.1299 155.461 16.9136 155.806 16.7596C156.158 16.5983 156.569 16.5176 157.038 16.5176C157.368 16.5176 157.68 16.5616 157.973 16.6496C158.274 16.7303 158.538 16.8549 158.765 17.0236C159 17.1923 159.19 17.4049 159.337 17.6616C159.484 17.9183 159.572 18.2226 159.601 18.5746H158.347ZM160.653 14.5046H161.907V18.9706L164.173 16.6716H165.713L163.535 18.7616L165.922 22.3586H164.393L162.655 19.5976L161.907 20.3236V22.3586H160.653V14.5046ZM169.135 22.5126C168.681 22.5126 168.274 22.4393 167.914 22.2926C167.562 22.1386 167.262 21.9296 167.012 21.6656C166.77 21.4016 166.583 21.0863 166.451 20.7196C166.327 20.3529 166.264 19.9496 166.264 19.5096C166.264 19.0769 166.327 18.6773 166.451 18.3106C166.583 17.9439 166.77 17.6286 167.012 17.3646C167.262 17.1006 167.562 16.8953 167.914 16.7486C168.274 16.5946 168.681 16.5176 169.135 16.5176C169.59 16.5176 169.993 16.5946 170.345 16.7486C170.705 16.8953 171.005 17.1006 171.247 17.3646C171.497 17.6286 171.684 17.9439 171.808 18.3106C171.94 18.6773 172.006 19.0769 172.006 19.5096C172.006 19.9496 171.94 20.3529 171.808 20.7196C171.684 21.0863 171.497 21.4016 171.247 21.6656C171.005 21.9296 170.705 22.1386 170.345 22.2926C169.993 22.4393 169.59 22.5126 169.135 22.5126ZM169.135 21.5226C169.414 21.5226 169.656 21.4639 169.861 21.3466C170.067 21.2293 170.235 21.0753 170.367 20.8846C170.499 20.6939 170.595 20.4813 170.653 20.2466C170.719 20.0046 170.752 19.7589 170.752 19.5096C170.752 19.2676 170.719 19.0256 170.653 18.7836C170.595 18.5416 170.499 18.3289 170.367 18.1456C170.235 17.9549 170.067 17.8009 169.861 17.6836C169.656 17.5663 169.414 17.5076 169.135 17.5076C168.857 17.5076 168.615 17.5663 168.409 17.6836C168.204 17.8009 168.035 17.9549 167.903 18.1456C167.771 18.3289 167.672 18.5416 167.606 18.7836C167.548 19.0256 167.518 19.2676 167.518 19.5096C167.518 19.7589 167.548 20.0046 167.606 20.2466C167.672 20.4813 167.771 20.6939 167.903 20.8846C168.035 21.0753 168.204 21.2293 168.409 21.3466C168.615 21.4639 168.857 21.5226 169.135 21.5226ZM178.043 22.3586H176.811V21.5666H176.789C176.635 21.8526 176.404 22.0836 176.096 22.2596C175.795 22.4283 175.487 22.5126 175.172 22.5126C174.424 22.5126 173.881 22.3293 173.544 21.9626C173.214 21.5886 173.049 21.0276 173.049 20.2796V16.6716H174.303V20.1586C174.303 20.6573 174.398 21.0093 174.589 21.2146C174.78 21.4199 175.047 21.5226 175.392 21.5226C175.656 21.5226 175.876 21.4823 176.052 21.4016C176.228 21.3209 176.371 21.2146 176.481 21.0826C176.591 20.9433 176.668 20.7783 176.712 20.5876C176.763 20.3969 176.789 20.1916 176.789 19.9716V16.6716H178.043V22.3586ZM178.793 16.6716H179.739V14.9666H180.993V16.6716H182.126V17.6066H180.993V20.6426C180.993 20.7746 180.997 20.8883 181.004 20.9836C181.019 21.0789 181.045 21.1596 181.081 21.2256C181.125 21.2916 181.188 21.3429 181.268 21.3796C181.349 21.4089 181.459 21.4236 181.598 21.4236C181.686 21.4236 181.774 21.4236 181.862 21.4236C181.95 21.4163 182.038 21.4016 182.126 21.3796V22.3476C181.987 22.3623 181.851 22.3769 181.719 22.3916C181.587 22.4063 181.452 22.4136 181.312 22.4136C180.982 22.4136 180.715 22.3843 180.509 22.3256C180.311 22.2596 180.154 22.1679 180.036 22.0506C179.926 21.9259 179.849 21.7719 179.805 21.5886C179.769 21.4053 179.747 21.1963 179.739 20.9616V17.6066H178.793V16.6716Z" fill="black"/>
</g>
<defs>
<clipPath id="clip0">
<rect width="250" height="35" fill="white" transform="translate(0 0.308472)"/>
</clipPath>
<clipPath id="clip1">
<rect width="70" height="19" fill="white" transform="translate(60.3502 8.30847)"/>
</clipPath>
</defs>
</svg>
